<svg width="17" height="20" viewBox="0 0 17 20" fill="none" xmlns="http://www.w3.org/2000/svg">
<path d="M16.5 17H10.5M10.5 17C10.5 15.8954 9.6046 15 8.5 15C7.3954 15 6.5 15.8954 6.5 17M10.5 17C10.5 18.1046 9.6046 19 8.5 19C7.3954 19 6.5 18.1046 6.5 17M6.5 17H0.5M16.5 10L4.5 10M4.5 10C4.5 8.8954 3.6046 8 2.5 8C1.3954 8 0.5 8.8954 0.5 10C0.5 11.1046 1.3954 12 2.5 12C3.6046 12 4.5 11.1046 4.5 10ZM12.5 3L0.5 3M12.5 3C12.5 4.1046 13.3954 5 14.5 5C15.6046 5 16.5 4.1046 16.5 3C16.5 1.8954 15.6046 1 14.5 1C13.3954 1 12.5 1.8954 12.5 3Z" stroke="black" stroke-linecap="round"/>
</svg>
