<svg xmlns="http://www.w3.org/2000/svg">
  <symbol id="logo" viewBox="0 0 66 24">
    <path d="M14.1826 16.644C13.1266 17.916 8.016 18.064 6.096 18.064C2.304 18.064 0 15.616 0 12.064C0 8.536 2.328 6.088 6.096 6.088C7.92 6.088 13.1746 7.284 14.2306 8.556L8.832 10.048C8.064 9.208 7.224 8.872 6.096 8.872C4.488 8.872 3.096 10.168 3.096 12.064C3.096 14.128 4.392 15.28 6.096 15.28C7.104 15.28 8.256 14.896 8.88 14.104L14.1826 16.644Z" />
    <path d="M28.8035 6.876L21.8195 23.436H18.3875L20.6195 18.276L15.7955 6.876H19.2035L21.6035 12.972L22.2995 15.156L22.9715 12.972L25.3715 6.876H28.8035Z" />
    <path d="M36.6494 9.42C34.9214 9.42 33.6734 10.74 33.6734 12.54C33.6734 14.316 34.9214 15.636 36.6494 15.636C38.3294 15.636 39.4814 14.388 39.4814 12.54C39.4814 10.668 38.3294 9.42 36.6494 9.42ZM30.6734 18.156V0.563995H33.7214V6.828L33.6734 7.644C34.1774 6.972 35.7134 6.588 36.7694 6.588C40.5374 6.588 42.6495 9.348 42.6495 12.54C42.6495 16.14 40.4894 18.468 36.7694 18.468C35.8574 18.468 34.3934 18.036 33.7934 17.316L33.8174 17.964V18.156H30.6734Z" />
    <path d="M55.3377 16.716C54.4497 17.868 52.4098 18.564 50.6578 18.564C46.8418 18.564 44.7058 15.948 44.7058 12.564C44.7058 9.108 46.8178 6.588 50.5378 6.588C54.2338 6.588 56.3457 9.108 56.3457 12.564C56.3457 12.948 56.3457 13.188 56.3217 13.524H47.8258C47.9938 14.94 49.0498 15.828 50.6578 15.828C51.8098 15.828 52.8897 15.444 53.5617 14.7L55.3377 16.716ZM47.8738 11.46H53.1537C53.0097 10.188 51.9538 9.324 50.5378 9.324C49.1218 9.324 47.9938 10.188 47.8738 11.46Z" />
    <path d="M64.7516 9.708C64.1276 9.49199 63.5756 9.42 62.9276 9.42C62.4956 9.42 62.1356 9.444 61.7996 9.588V18.156H58.7036V7.38C59.6396 6.9 61.2476 6.564 62.8076 6.564C63.4796 6.564 64.6796 6.636 65.3996 6.9L64.7516 9.708Z" />
  </symbol>
  <symbol id="search" viewBox="0 0 18 18">
    <path d="M16.9331 17L13.1554 13.2156M15.2489 8.15789C15.2489 10.0563 14.4948 11.8769 13.1524 13.2193C11.81 14.5617 9.98939 15.3158 8.091 15.3158C6.19261 15.3158 4.37197 14.5617 3.0296 13.2193C1.68724 11.8769 0.933105 10.0563 0.933105 8.15789C0.933105 6.2595 1.68724 4.43886 3.0296 3.0965C4.37197 1.75413 6.19261 1 8.091 1C9.98939 1 11.81 1.75413 13.1524 3.0965C14.4948 4.43886 15.2489 6.2595 15.2489 8.15789V8.15789Z" stroke-width="1.5" stroke-linecap="round" />
  </symbol>
  <symbol id="cross-cleare" viewBox="0 0 20 20">
    <path d="M10 10l5.09-5.09L10 10l5.09 5.09L10 10zm0 0L4.91 4.91 10 10l-5.09 5.09L10 10z" fill-rule="evenodd" stroke-linecap="round"  stroke-linejoin="round" />
  </symbol>
  <symbol id="like" viewBox="0 0 22 24">
    <path d="M2.93415 13.5442L12.3152 22.3567C12.6397 22.6615 12.8019 22.8139 12.9999 22.8139C13.1979 22.8139 13.3602 22.6615 13.6846 22.3567L23.0657 13.5442C25.6739 11.094 25.9907 7.06205 23.797 4.23467L23.3845 3.70304C20.7603 0.320691 15.4928 0.887938 13.6488 4.75145C13.3883 5.2972 12.6115 5.2972 12.351 4.75145C10.5071 0.887938 5.23955 0.320691 2.61531 3.70304L2.20284 4.23467C0.00918293 7.06205 0.325915 11.094 2.93415 13.5442Z" stroke-width="1.5" stroke-linecap="round" stroke-linejoin="round" />
  </symbol>
  <symbol id="shop" viewBox="0 0 27 24">
    <path d="M1 1H5L8 18H24M8 12.6667H23.59C23.7056 12.6667 23.8177 12.6267 23.9072 12.5535C23.9966 12.4802 24.0579 12.3782 24.0806 12.2648L25.8806 3.26479C25.8951 3.19222 25.8934 3.11733 25.8755 3.04552C25.8575 2.97372 25.8239 2.90679 25.7769 2.84956C25.73 2.79234 25.6709 2.74625 25.604 2.71462C25.5371 2.68299 25.464 2.66662 25.39 2.66667H6M10 22C10 22.5523 9.55228 23 9 23C8.44772 23 8 22.5523 8 22C8 21.4477 8.44772 21 9 21C9.55228 21 10 21.4477 10 22ZM24 22C24 22.5523 23.5523 23 23 23C22.4477 23 22 22.5523 22 22C22 21.4477 22.4477 21 23 21C23.5523 21 24 21.4477 24 22Z" stroke-width="1.5" stroke-linecap="round" stroke-linejoin="round" />
  </symbol>
  <symbol id="login" viewBox="0 0 19 24">
    <path d="M18 23V20.3333C18 18.9188 17.5224 17.5623 16.6722 16.5621C15.8221 15.5619 14.669 15 13.4667 15H5.53333C4.33102 15 3.17795 15.5619 2.32778 16.5621C1.47762 17.5623 1 18.9188 1 20.3333V23M15 5.5C15 7.98528 12.9853 10 10.5 10C8.01472 10 6 7.98528 6 5.5C6 3.01472 8.01472 1 10.5 1C12.9853 1 15 3.01472 15 5.5Z" stroke-width="1.5" stroke-linecap="round" stroke-linejoin="round" />
  </symbol>
  <symbol id="btn-prev" viewBox="0 0 14 24">
    <path d="M12.3333 23.6667C12.0678 23.6679 11.8131 23.5622 11.6266 23.3733L0.959934 12.7067C0.569996 12.3162 0.569996 11.6838 0.959934 11.2933L11.6266 0.626666C12.0206 0.259521 12.6346 0.270354 13.0154 0.65117C13.3962 1.03199 13.4071 1.64599 13.0399 2.04L3.07993 12L13.0399 21.96C13.4299 22.3504 13.4299 22.9829 13.0399 23.3733C12.8534 23.5622 12.5987 23.6679 12.3333 23.6667Z" />
  </symbol>
  <symbol id="btn-next" viewBox="0 0 14 24">
    <path d="M1.66673 0.333332C1.93215 0.332079 2.18689 0.43782 2.3734 0.626667L13.0401 11.2933C13.43 11.6838 13.43 12.3162 13.0401 12.7067L2.3734 23.3733C1.97939 23.7405 1.36539 23.7296 0.984571 23.3488C0.603755 22.968 0.592921 22.354 0.960067 21.96L10.9201 12L0.960067 2.04C0.570128 1.64958 0.570128 1.01709 0.960067 0.626667C1.14658 0.43782 1.40131 0.332079 1.66673 0.333332Z" />
  </symbol>
  <symbol id="phones" viewBox="0 0 48 48" fill="none">
    <path d="M33.375 5.25H14.625C13.3306 5.25 12.2812 6.29933 12.2812 7.59375V40.4062C12.2812 41.7007 13.3306 42.75 14.625 42.75H33.375C34.6694 42.75 35.7188 41.7007 35.7188 40.4062V7.59375C35.7188 6.29933 34.6694 5.25 33.375 5.25Z" stroke-width="2" stroke-linecap="round" stroke-linejoin="round"/>
    <path d="M22 6H26.6875" stroke-width="3" stroke-linecap="round" stroke-linejoin="round"/>
    <path d="M24 37.7188V37.7404" stroke-width="2.5" stroke-linecap="round" stroke-linejoin="round"/>
    <line x1="13" y1="34" x2="35" y2="34" stroke-width="2"/>
  </symbol>
  <symbol id="watches" viewBox="0 0 48 48" fill="none">
    <path d="M30 12H18C14.6863 12 12 14.6863 12 18V30C12 33.3137 14.6863 36 18 36H30C33.3137 36 36 33.3137 36 30V18C36 14.6863 33.3137 12 30 12Z" stroke-width="2" stroke-linecap="round" stroke-linejoin="round"/>
    <path d="M18 36V42H30V36" stroke-width="2" stroke-linecap="round" stroke-linejoin="round"/>
    <path d="M18 12V6H30V12" stroke-width="2" stroke-linecap="round" stroke-linejoin="round"/>
    <line x1="20.7144" y1="18" x2="20.7144" y2="29" stroke-width="2" stroke-linecap="round"/>
    <line x1="24.7144" y1="23" x2="24.7144" y2="29" stroke-width="2" stroke-linecap="round"/>
    <line x1="28.7144" y1="21" x2="28.7144" y2="29" stroke-width="2" stroke-linecap="round"/>
  </symbol>
  <symbol id="camera" viewBox="0 0 48 48" fill="none">
    <path d="M10 14H12C13.0609 14 14.0783 13.5786 14.8284 12.8284C15.5786 12.0783 16 11.0609 16 10C16 9.46957 16.2107 8.96086 16.5858 8.58579C16.9609 8.21071 17.4696 8 18 8H30C30.5304 8 31.0391 8.21071 31.4142 8.58579C31.7893 8.96086 32 9.46957 32 10C32 11.0609 32.4214 12.0783 33.1716 12.8284C33.9217 13.5786 34.9391 14 36 14H38C39.0609 14 40.0783 14.4214 40.8284 15.1716C41.5786 15.9217 42 16.9391 42 18V36C42 37.0609 41.5786 38.0783 40.8284 38.8284C40.0783 39.5786 39.0609 40 38 40H10C8.93913 40 7.92172 39.5786 7.17157 38.8284C6.42143 38.0783 6 37.0609 6 36V18C6 16.9391 6.42143 15.9217 7.17157 15.1716C7.92172 14.4214 8.93913 14 10 14" stroke-width="2" stroke-linecap="round" stroke-linejoin="round"/>
    <path d="M24 32C27.3137 32 30 29.3137 30 26C30 22.6863 27.3137 20 24 20C20.6863 20 18 22.6863 18 26C18 29.3137 20.6863 32 24 32Z" stroke-width="2" stroke-linecap="round" stroke-linejoin="round"/>
  </symbol>
  <symbol id="headphones" viewBox="0 0 48 48" fill="none">
    <path d="M14 26H12C9.79086 26 8 27.7909 8 30V36C8 38.2091 9.79086 40 12 40H14C16.2091 40 18 38.2091 18 36V30C18 27.7909 16.2091 26 14 26Z" stroke-width="2" stroke-linecap="round" stroke-linejoin="round"/>
    <path d="M36 26H34C31.7909 26 30 27.7909 30 30V36C30 38.2091 31.7909 40 34 40H36C38.2091 40 40 38.2091 40 36V30C40 27.7909 38.2091 26 36 26Z" stroke-width="2" stroke-linecap="round" stroke-linejoin="round"/>
    <path d="M8 30V24C8 19.7565 9.68571 15.6869 12.6863 12.6863C15.6869 9.68571 19.7565 8 24 8C28.2435 8 32.3131 9.68571 35.3137 12.6863C38.3143 15.6869 40 19.7565 40 24V30" stroke-width="2" stroke-linecap="round" stroke-linejoin="round"/>
  </symbol>
  <symbol id="computers" viewBox="0 0 48 48" fill="none">
    <path d="M40 8H8C6.89543 8 6 8.89543 6 10V30C6 31.1046 6.89543 32 8 32H40C41.1046 32 42 31.1046 42 30V10C42 8.89543 41.1046 8 40 8Z" stroke-width="2" stroke-linecap="round" stroke-linejoin="round"/>
    <path d="M14 40H34" stroke-width="2" stroke-linecap="round" stroke-linejoin="round"/>
    <path d="M18 32V40" stroke-width="2" stroke-linecap="round" stroke-linejoin="round"/>
    <path d="M30 32V40" stroke-width="2" stroke-linecap="round" stroke-linejoin="round"/>
    <path d="M6.85718 27.4286H41.1429" stroke-width="2" stroke-linecap="round"/>
  </symbol>
  <symbol id="gaming" viewBox="0 0 48 48" fill="none">
    <path d="M40 12H8C5.79086 12 4 13.7909 4 16V32C4 34.2091 5.79086 36 8 36H40C42.2091 36 44 34.2091 44 32V16C44 13.7909 42.2091 12 40 12Z" stroke-width="2" stroke-linecap="round" stroke-linejoin="round"/>
    <path d="M12 24H20M16 20V28" stroke-width="2" stroke-linecap="round" stroke-linejoin="round"/>
    <path d="M30 22V22.0207" stroke-width="3" stroke-linecap="round" stroke-linejoin="round"/>
    <path d="M36 25.9999V26.0206" stroke-width="3" stroke-linecap="round" stroke-linejoin="round"/>
  </symbol>
  <symbol id="twitter" viewBox="0 0 16 16">
    <path fill-rule="evenodd" clip-rule="evenodd" d="M16 2.91193C15.4121 3.17965 14.7791 3.3607 14.1152 3.4416C14.7932 3.02556 15.3135 2.36588 15.5586 1.58004C14.9238 1.96525 14.2222 2.2455 13.4728 2.39573C12.8755 1.74183 12.0218 1.3335 11.0771 1.3335C9.26548 1.3335 7.79574 2.84066 7.79574 4.69933C7.79574 4.9632 7.82391 5.21938 7.88026 5.46592C5.15208 5.32531 2.73381 3.98668 1.11381 1.94792C0.831132 2.44677 0.669596 3.02556 0.669596 3.64191C0.669596 4.80912 1.24905 5.83958 2.12995 6.4434C1.59277 6.42703 1.08563 6.27391 0.642365 6.02352V6.06493C0.642365 7.69632 1.77402 9.0571 3.27663 9.36527C3.00147 9.44424 2.71128 9.48373 2.41169 9.48373C2.20039 9.48373 1.99378 9.46351 1.79374 9.42402C2.21166 10.7607 3.42313 11.7344 4.86001 11.7604C3.7368 12.6637 2.32059 13.202 0.783234 13.202C0.518398 13.202 0.256383 13.1866 0 13.1558C1.45284 14.1092 3.17896 14.6668 5.03187 14.6668C11.0705 14.6668 14.3715 9.53862 14.3715 5.09033C14.3715 4.94394 14.3687 4.79756 14.3631 4.65407C15.0045 4.17929 15.5614 3.58702 16 2.91193Z" />
  </symbol>
  <symbol id="facebook" viewBox="0 0 17 16">
    <path d="M9.18082 3.81794C9.18082 3.98169 9.18082 4.51541 9.18082 5.27366H11.7878L11.5052 7.59763H9.18082C9.18082 11.1816 9.18082 15.9843 9.18082 15.9843H6.09563C6.09563 15.9843 6.09563 11.2452 6.09563 7.59763H4.48804V5.27366H6.09563C6.09563 4.35204 6.09563 3.69669 6.09563 3.51422C6.09563 2.64485 6.03013 2.23235 6.39954 1.55866C6.76913 0.885005 7.81163 -0.00543266 9.61472 0.0160048C11.4183 0.0382236 12.1785 0.211724 12.1785 0.211724L11.7878 2.6885C11.7878 2.6885 10.6362 2.38441 10.0709 2.49279C9.50635 2.60119 9.18082 2.94894 9.18082 3.81794Z" />
  </symbol>
  <symbol id="tiktok" viewBox="0 0 17 16">
    <path d="M12.5504 3.358C11.891 2.59144 11.5456 1.60104 11.5731 0.592723L9.10925 0.533203C9.10925 0.533203 9.10925 0.638323 9.10925 0.780083V10.6602C9.14365 13.786 4.20509 13.7102 4.59581 10.2551C4.83469 8.88136 6.31085 8.03592 7.62253 8.51384V5.99992C4.76685 5.50264 2.06061 7.7756 2.08909 10.6713C2.33869 16.9513 11.3461 16.9521 11.596 10.6713C11.5331 10.4465 11.5683 6.26152 11.5593 5.90856C12.6797 6.60568 13.9832 6.95416 15.3033 6.90952V4.3132C14.0829 4.3132 13.1515 3.98872 12.5504 3.358Z" />
  </symbol>
  <symbol id="instagram" viewBox="0 0 16 16">
    <path d="M7.99992 14.6668C6.57042 14.6668 5.54174 14.6661 4.73972 14.5883C3.94689 14.5115 3.43972 14.3638 3.03497 14.1095C2.57237 13.8188 2.1812 13.4277 1.89052 12.9651C1.63628 12.5604 1.4885 12.0532 1.41174 11.2604C1.33396 10.4583 1.33325 9.42966 1.33325 8.00016C1.33325 6.57067 1.33396 5.54198 1.41174 4.73996C1.4885 3.94713 1.63628 3.43996 1.89052 3.03521C2.18119 2.5726 2.57236 2.18143 3.03497 1.89077C3.43972 1.63653 3.94689 1.48875 4.73972 1.41198C5.54164 1.3342 6.57032 1.3335 7.99992 1.3335C9.42941 1.3335 10.4581 1.3342 11.2601 1.41198C12.0529 1.48875 12.5601 1.63653 12.9649 1.89077C13.4274 2.18144 13.8186 2.57261 14.1092 3.03521C14.3636 3.43996 14.5112 3.94713 14.5881 4.73996C14.6659 5.54198 14.6666 6.57067 14.6666 8.00016C14.6666 9.42966 14.6659 10.4583 14.5881 11.2604C14.5112 12.0532 14.3636 12.5604 14.1092 12.9651C13.8186 13.4277 13.4274 13.8188 12.9649 14.1095C12.5601 14.3638 12.0529 14.5115 11.2601 14.5883C10.4581 14.6661 9.42941 14.6668 7.99992 14.6668Z" stroke-width="2" />
    <path d="M7.99992 11.3333C9.47268 11.3333 10.6666 10.1394 10.6666 8.66667C10.6666 7.19391 9.47268 6 7.99992 6C6.52716 6 5.33325 7.19391 5.33325 8.66667C5.33325 10.1394 6.52716 11.3333 7.99992 11.3333Z" stroke-width="2" />
    <path d="M11.25 5.5C11.6642 5.5 12 5.16421 12 4.75C12 4.33579 11.6642 4 11.25 4C10.8358 4 10.5 4.33579 10.5 4.75C10.5 5.16421 10.8358 5.5 11.25 5.5Z" />
  </symbol>
  <symbol id="truck" viewBox="0 0 24 24" >
    <path d="M21.47 11.185L20.44 9.755C20.2095 9.43121 19.9051 9.16706 19.552 8.98445C19.199 8.80184 18.8075 8.70604 18.41 8.705H14.03V6.565C14.03 5.90196 13.7666 5.26608 13.2978 4.79724C12.8289 4.32839 12.193 4.065 11.53 4.065H4.56C3.89753 4.06685 3.26272 4.33083 2.79428 4.79928C2.32583 5.26772 2.06185 5.90253 2.06 6.565V16.505C2.06 16.9028 2.21804 17.2844 2.49934 17.5657C2.78065 17.847 3.16218 18.005 3.56 18.005H4.78C4.85551 18.54 5.12171 19.0298 5.52961 19.3842C5.93751 19.7385 6.45967 19.9337 7 19.9337C7.54034 19.9337 8.0625 19.7385 8.4704 19.3842C8.87829 19.0298 9.14449 18.54 9.22 18.005H14.78C14.8555 18.54 15.1217 19.0298 15.5296 19.3842C15.9375 19.7385 16.4597 19.9337 17 19.9337C17.5403 19.9337 18.0625 19.7385 18.4704 19.3842C18.8783 19.0298 19.1445 18.54 19.22 18.005H20.44C20.8378 18.005 21.2194 17.847 21.5007 17.5657C21.782 17.2844 21.94 16.9028 21.94 16.505V12.635C21.9376 12.1146 21.7733 11.6079 21.47 11.185ZM7 18.935C6.75277 18.935 6.5111 18.8617 6.30554 18.7243C6.09998 18.587 5.93976 18.3918 5.84515 18.1634C5.75054 17.9349 5.72579 17.6836 5.77402 17.4411C5.82225 17.1987 5.9413 16.9759 6.11612 16.8011C6.29093 16.6263 6.51366 16.5073 6.75614 16.459C6.99861 16.4108 7.24995 16.4355 7.47836 16.5302C7.70676 16.6248 7.90199 16.785 8.03934 16.9905C8.17669 17.1961 8.25 17.4378 8.25 17.685C8.25 18.0165 8.11831 18.3345 7.88388 18.5689C7.64946 18.8033 7.33152 18.935 7 18.935ZM13.03 17.005H9.15C9.0044 16.5491 8.71766 16.1513 8.3312 15.8691C7.94474 15.5868 7.47856 15.4347 7 15.4347C6.52144 15.4347 6.05526 15.5868 5.6688 15.8691C5.28234 16.1513 4.9956 16.5491 4.85 17.005H3.56C3.42739 17.005 3.30022 16.9523 3.20645 16.8586C3.11268 16.7648 3.06 16.6376 3.06 16.505V6.565C3.06 6.16718 3.21804 5.78565 3.49934 5.50434C3.78065 5.22304 4.16218 5.065 4.56 5.065H11.53C11.9278 5.065 12.3094 5.22304 12.5907 5.50434C12.872 5.78565 13.03 6.16718 13.03 6.565V17.005ZM17 18.935C16.7528 18.935 16.5111 18.8617 16.3055 18.7243C16.1 18.587 15.9398 18.3918 15.8452 18.1634C15.7505 17.9349 15.7258 17.6836 15.774 17.4411C15.8223 17.1987 15.9413 16.9759 16.1161 16.8011C16.2909 16.6263 16.5137 16.5073 16.7561 16.459C16.9986 16.4108 17.2499 16.4355 17.4784 16.5302C17.7068 16.6248 17.902 16.785 18.0393 16.9905C18.1767 17.1961 18.25 17.4378 18.25 17.685C18.25 18.0165 18.1183 18.3345 17.8839 18.5689C17.6495 18.8033 17.3315 18.935 17 18.935ZM20.94 16.505C20.94 16.6376 20.8873 16.7648 20.7936 16.8586C20.6998 16.9523 20.5726 17.005 20.44 17.005H19.15C19.0044 16.5491 18.7177 16.1513 18.3312 15.8691C17.9447 15.5868 17.4786 15.4347 17 15.4347C16.5214 15.4347 16.0553 15.5868 15.6688 15.8691C15.2823 16.1513 14.9956 16.5491 14.85 17.005H14.03V9.705H18.41C18.6486 9.7066 18.8834 9.76449 19.0954 9.87396C19.3074 9.98344 19.4906 10.1414 19.63 10.335L20.66 11.765C20.84 12.0196 20.9377 12.3232 20.94 12.635V16.505Z" />
    <path d="M18.029 12.205H16.029C15.8964 12.205 15.7692 12.1523 15.6754 12.0586C15.5817 11.9648 15.529 11.8376 15.529 11.705C15.529 11.5724 15.5817 11.4452 15.6754 11.3515C15.7692 11.2577 15.8964 11.205 16.029 11.205H18.029C18.1616 11.205 18.2888 11.2577 18.3826 11.3515C18.4763 11.4452 18.529 11.5724 18.529 11.705C18.529 11.8376 18.4763 11.9648 18.3826 12.0586C18.2888 12.1523 18.1616 12.205 18.029 12.205Z" />
  </symbol>
  <symbol id="stock" viewBox="0 0 24 24" >
    <path fill-rule="evenodd" clip-rule="evenodd" d="M7.43526 1.25H16.5647C17.1346 1.24998 17.6186 1.24997 18.0185 1.29132C18.4443 1.33534 18.8378 1.43094 19.2096 1.66071C19.5814 1.89048 19.8429 2.19971 20.0727 2.56088C20.2885 2.9001 20.5049 3.33297 20.7598 3.8428L20.7763 3.87574C20.786 3.89518 20.7949 3.91504 20.8029 3.93526L22.2065 7.4834C22.3735 7.90559 22.5586 8.4323 22.6127 8.97128C22.6681 9.52258 22.5921 10.1541 22.1601 10.7019C21.8068 11.15 21.3155 11.4863 20.75 11.6463V21.25H22C22.4142 21.25 22.75 21.5858 22.75 22C22.75 22.4142 22.4142 22.75 22 22.75H2C1.58579 22.75 1.25 22.4142 1.25 22C1.25 21.5858 1.58579 21.25 2 21.25H3.25V11.6464C2.68446 11.4863 2.19312 11.15 1.83975 10.7019C1.40779 10.1541 1.33182 9.52257 1.38718 8.97127C1.4413 8.43229 1.62639 7.90559 1.7934 7.4834L3.19701 3.93526C3.20501 3.91504 3.21388 3.89518 3.22361 3.87574L3.2401 3.84275C3.49498 3.33295 3.71139 2.90009 3.92723 2.56088C4.15704 2.19971 4.41853 1.89048 4.79031 1.66071C5.16208 1.43094 5.55561 1.33534 5.98142 1.29132C6.38134 1.24997 6.86529 1.24998 7.43526 1.25ZM17.9999 10.8875C18.3359 11.2433 18.7658 11.5096 19.25 11.6465V21.25H15.25V18.4678C15.25 18.028 15.25 17.6486 15.2218 17.3374C15.192 17.0082 15.1259 16.6822 14.9486 16.375C14.7511 16.033 14.467 15.7489 14.125 15.5514C13.8178 15.3741 13.4918 15.308 13.1627 15.2782C12.8514 15.25 12.472 15.25 12.0322 15.25H11.9678C11.528 15.25 11.1486 15.25 10.8373 15.2782C10.5082 15.308 10.1822 15.3741 9.875 15.5514C9.53296 15.7489 9.24892 16.033 9.05144 16.375C8.87407 16.6822 8.80802 17.0082 8.77818 17.3374C8.74997 17.6486 8.74998 18.028 8.75 18.4677V21.25H4.75V11.6465C5.23413 11.5095 5.66398 11.2433 5.99992 10.8875C6.5013 11.4186 7.2119 11.75 7.99991 11.75C8.78793 11.75 9.49853 11.4186 9.99992 10.8875C10.5013 11.4186 11.2119 11.75 11.9999 11.75C12.7879 11.75 13.4985 11.4186 13.9999 10.8875C14.5013 11.4186 15.2119 11.75 15.9999 11.75C16.7879 11.75 17.4985 11.4186 17.9999 10.8875ZM10.25 21.25H13.75V18.5C13.75 18.0189 13.7493 17.7082 13.7279 17.4727C13.7075 17.2476 13.6731 17.1659 13.6495 17.125C13.5837 17.011 13.489 16.9163 13.375 16.8505C13.3341 16.8269 13.2524 16.7925 13.0273 16.7721C12.7918 16.7507 12.4811 16.75 12 16.75C11.5189 16.75 11.2082 16.7507 10.9727 16.7721C10.7476 16.7925 10.6659 16.8269 10.625 16.8505C10.511 16.9163 10.4163 17.011 10.3505 17.125C10.3269 17.1659 10.2925 17.2476 10.2721 17.4727C10.2507 17.7082 10.25 18.0189 10.25 18.5V21.25ZM6.74991 9C6.74991 9.69036 7.30956 10.25 7.99991 10.25C8.69027 10.25 9.24991 9.69036 9.24991 9C9.24991 8.58579 9.5857 8.25 9.99991 8.25C10.4141 8.25 10.7499 8.58579 10.7499 9C10.7499 9.69036 11.3096 10.25 11.9999 10.25C12.6903 10.25 13.2499 9.69036 13.2499 9C13.2499 8.58579 13.5857 8.25 13.9999 8.25C14.4141 8.25 14.7499 8.58579 14.7499 9C14.7499 9.69036 15.3096 10.25 15.9999 10.25C16.6903 10.25 17.2499 9.69036 17.2499 9C17.2499 8.58579 17.5857 8.25 17.9999 8.25C18.4141 8.25 18.7499 8.58579 18.7499 9C18.7499 9.69036 19.3096 10.25 19.9999 10.25C20.3979 10.25 20.7522 10.0649 20.9823 9.77305C21.0962 9.62859 21.1513 9.43094 21.1202 9.12114C21.0879 8.79903 20.969 8.43275 20.8117 8.03518L19.4201 4.51739C19.1524 3.98204 18.9735 3.62749 18.8071 3.36612C18.6472 3.1147 18.5325 3.00562 18.421 2.93669C18.3095 2.86776 18.1606 2.81401 17.8642 2.78336C17.5505 2.75093 17.1446 2.75 16.5278 2.75H7.47214C6.85533 2.75 6.4494 2.75093 6.13569 2.78336C5.83927 2.81401 5.69044 2.86776 5.5789 2.93669C5.46737 3.00562 5.35274 3.1147 5.19276 3.36612C5.02646 3.62749 4.84755 3.98204 4.57983 4.51739L3.18823 8.03518C3.03095 8.43275 2.91202 8.79903 2.87967 9.12115C2.84856 9.43095 2.90366 9.62861 3.01759 9.77307C3.2477 10.0649 3.60196 10.25 3.99991 10.25C4.69027 10.25 5.24991 9.69036 5.24991 9C5.24991 8.58579 5.5857 8.25 5.99991 8.25C6.41413 8.25 6.74991 8.58579 6.74991 9Z"/>
  </symbol>
  <symbol id="verify" viewBox="0 0 24 24" >
    <path d="M10.79 15.17C10.59 15.17 10.4 15.09 10.26 14.95L7.84 12.53C7.55 12.24 7.55 11.76 7.84 11.47C8.13 11.18 8.61 11.18 8.9 11.47L10.79 13.36L15.09 9.06003C15.38 8.77003 15.86 8.77003 16.15 9.06003C16.44 9.35003 16.44 9.83003 16.15 10.12L11.32 14.95C11.18 15.09 10.99 15.17 10.79 15.17Z"/>
    <path d="M12 22.75C11.37 22.75 10.74 22.54 10.25 22.12L8.67 20.76C8.51 20.62 8.11 20.48 7.9 20.48H6.18C4.7 20.48 3.5 19.28 3.5 17.8V16.09C3.5 15.88 3.36 15.49 3.22 15.33L1.87 13.74C1.05 12.77 1.05 11.24 1.87 10.27L3.22 8.68C3.36 8.52 3.5 8.13 3.5 7.92V6.2C3.5 4.72 4.7 3.52 6.18 3.52H7.91C8.12 3.52 8.52 3.37 8.68 3.24L10.26 1.88C11.24 1.04 12.77 1.04 13.75 1.88L15.33 3.24C15.49 3.38 15.89 3.52 16.1 3.52H17.8C19.28 3.52 20.48 4.72 20.48 6.2V7.9C20.48 8.11 20.63 8.51 20.77 8.67L22.13 10.25C22.97 11.23 22.97 12.76 22.13 13.74L20.77 15.32C20.63 15.48 20.48 15.88 20.48 16.09V17.79C20.48 19.27 19.28 20.47 17.8 20.47H16.1C15.89 20.47 15.49 20.62 15.33 20.75L13.75 22.11C13.26 22.54 12.63 22.75 12 22.75ZM6.18 5.02C5.53 5.02 5 5.55 5 6.2V7.91C5 8.48 4.73 9.21 4.36 9.64L3.01 11.23C2.66 11.64 2.66 12.35 3.01 12.76L4.36 14.35C4.73 14.79 5 15.51 5 16.08V17.79C5 18.44 5.53 18.97 6.18 18.97H7.91C8.49 18.97 9.22 19.24 9.66 19.62L11.24 20.98C11.65 21.33 12.37 21.33 12.78 20.98L14.36 19.62C14.8 19.25 15.53 18.97 16.11 18.97H17.81C18.46 18.97 18.99 18.44 18.99 17.79V16.09C18.99 15.51 19.26 14.78 19.64 14.34L21 12.76C21.35 12.35 21.35 11.63 21 11.22L19.64 9.64C19.26 9.2 18.99 8.47 18.99 7.89V6.2C18.99 5.55 18.46 5.02 17.81 5.02H16.11C15.53 5.02 14.8 4.75 14.36 4.37L12.78 3.01C12.37 2.66 11.65 2.66 11.24 3.01L9.66 4.38C9.22 4.75 8.48 5.02 7.91 5.02H6.18Z"/>
  </symbol>
</svg>