<svg xmlns="http://www.w3.org/2000/svg">
  <symbol id="logo" viewBox="0 0 66 24">
    <path d="M14.1826 16.644C13.1266 17.916 8.016 18.064 6.096 18.064C2.304 18.064 0 15.616 0 12.064C0 8.536 2.328 6.088 6.096 6.088C7.92 6.088 13.1746 7.284 14.2306 8.556L8.832 10.048C8.064 9.208 7.224 8.872 6.096 8.872C4.488 8.872 3.096 10.168 3.096 12.064C3.096 14.128 4.392 15.28 6.096 15.28C7.104 15.28 8.256 14.896 8.88 14.104L14.1826 16.644Z" />
    <path d="M28.8035 6.876L21.8195 23.436H18.3875L20.6195 18.276L15.7955 6.876H19.2035L21.6035 12.972L22.2995 15.156L22.9715 12.972L25.3715 6.876H28.8035Z" />
    <path d="M36.6494 9.42C34.9214 9.42 33.6734 10.74 33.6734 12.54C33.6734 14.316 34.9214 15.636 36.6494 15.636C38.3294 15.636 39.4814 14.388 39.4814 12.54C39.4814 10.668 38.3294 9.42 36.6494 9.42ZM30.6734 18.156V0.563995H33.7214V6.828L33.6734 7.644C34.1774 6.972 35.7134 6.588 36.7694 6.588C40.5374 6.588 42.6495 9.348 42.6495 12.54C42.6495 16.14 40.4894 18.468 36.7694 18.468C35.8574 18.468 34.3934 18.036 33.7934 17.316L33.8174 17.964V18.156H30.6734Z" />
    <path d="M55.3377 16.716C54.4497 17.868 52.4098 18.564 50.6578 18.564C46.8418 18.564 44.7058 15.948 44.7058 12.564C44.7058 9.108 46.8178 6.588 50.5378 6.588C54.2338 6.588 56.3457 9.108 56.3457 12.564C56.3457 12.948 56.3457 13.188 56.3217 13.524H47.8258C47.9938 14.94 49.0498 15.828 50.6578 15.828C51.8098 15.828 52.8897 15.444 53.5617 14.7L55.3377 16.716ZM47.8738 11.46H53.1537C53.0097 10.188 51.9538 9.324 50.5378 9.324C49.1218 9.324 47.9938 10.188 47.8738 11.46Z" />
    <path d="M64.7516 9.708C64.1276 9.49199 63.5756 9.42 62.9276 9.42C62.4956 9.42 62.1356 9.444 61.7996 9.588V18.156H58.7036V7.38C59.6396 6.9 61.2476 6.564 62.8076 6.564C63.4796 6.564 64.6796 6.636 65.3996 6.9L64.7516 9.708Z" />
  </symbol>
  <symbol id="search" viewBox="0 0 18 18">
    <path d="M16.9331 17L13.1554 13.2156M15.2489 8.15789C15.2489 10.0563 14.4948 11.8769 13.1524 13.2193C11.81 14.5617 9.98939 15.3158 8.091 15.3158C6.19261 15.3158 4.37197 14.5617 3.0296 13.2193C1.68724 11.8769 0.933105 10.0563 0.933105 8.15789C0.933105 6.2595 1.68724 4.43886 3.0296 3.0965C4.37197 1.75413 6.19261 1 8.091 1C9.98939 1 11.81 1.75413 13.1524 3.0965C14.4948 4.43886 15.2489 6.2595 15.2489 8.15789V8.15789Z" stroke-width="1.5" stroke-linecap="round" />
  </symbol>
  <symbol id="cross-cleare" viewBox="0 0 20 20">
    <path d="M10 10l5.09-5.09L10 10l5.09 5.09L10 10zm0 0L4.91 4.91 10 10l-5.09 5.09L10 10z" fill-rule="evenodd" stroke-linecap="round"  stroke-linejoin="round" />
  </symbol>
  <symbol id="like" viewBox="0 0 22 24">
    <path d="M2.93415 13.5442L12.3152 22.3567C12.6397 22.6615 12.8019 22.8139 12.9999 22.8139C13.1979 22.8139 13.3602 22.6615 13.6846 22.3567L23.0657 13.5442C25.6739 11.094 25.9907 7.06205 23.797 4.23467L23.3845 3.70304C20.7603 0.320691 15.4928 0.887938 13.6488 4.75145C13.3883 5.2972 12.6115 5.2972 12.351 4.75145C10.5071 0.887938 5.23955 0.320691 2.61531 3.70304L2.20284 4.23467C0.00918293 7.06205 0.325915 11.094 2.93415 13.5442Z" stroke-width="1.5" stroke-linecap="round" stroke-linejoin="round" />
  </symbol>
  <symbol id="shop" viewBox="0 0 27 24">
    <path d="M1 1H5L8 18H24M8 12.6667H23.59C23.7056 12.6667 23.8177 12.6267 23.9072 12.5535C23.9966 12.4802 24.0579 12.3782 24.0806 12.2648L25.8806 3.26479C25.8951 3.19222 25.8934 3.11733 25.8755 3.04552C25.8575 2.97372 25.8239 2.90679 25.7769 2.84956C25.73 2.79234 25.6709 2.74625 25.604 2.71462C25.5371 2.68299 25.464 2.66662 25.39 2.66667H6M10 22C10 22.5523 9.55228 23 9 23C8.44772 23 8 22.5523 8 22C8 21.4477 8.44772 21 9 21C9.55228 21 10 21.4477 10 22ZM24 22C24 22.5523 23.5523 23 23 23C22.4477 23 22 22.5523 22 22C22 21.4477 22.4477 21 23 21C23.5523 21 24 21.4477 24 22Z" stroke-width="1.5" stroke-linecap="round" stroke-linejoin="round" />
  </symbol>
  <symbol id="login" viewBox="0 0 19 24">
    <path d="M18 23V20.3333C18 18.9188 17.5224 17.5623 16.6722 16.5621C15.8221 15.5619 14.669 15 13.4667 15H5.53333C4.33102 15 3.17795 15.5619 2.32778 16.5621C1.47762 17.5623 1 18.9188 1 20.3333V23M15 5.5C15 7.98528 12.9853 10 10.5 10C8.01472 10 6 7.98528 6 5.5C6 3.01472 8.01472 1 10.5 1C12.9853 1 15 3.01472 15 5.5Z" stroke-width="1.5" stroke-linecap="round" stroke-linejoin="round" />
  </symbol>
  <symbol id="btn-prev" viewBox="0 0 14 24">
    <path d="M12.3333 23.6667C12.0678 23.6679 11.8131 23.5622 11.6266 23.3733L0.959934 12.7067C0.569996 12.3162 0.569996 11.6838 0.959934 11.2933L11.6266 0.626666C12.0206 0.259521 12.6346 0.270354 13.0154 0.65117C13.3962 1.03199 13.4071 1.64599 13.0399 2.04L3.07993 12L13.0399 21.96C13.4299 22.3504 13.4299 22.9829 13.0399 23.3733C12.8534 23.5622 12.5987 23.6679 12.3333 23.6667Z" />
  </symbol>
  <symbol id="btn-next" viewBox="0 0 14 24">
    <path d="M1.66673 0.333332C1.93215 0.332079 2.18689 0.43782 2.3734 0.626667L13.0401 11.2933C13.43 11.6838 13.43 12.3162 13.0401 12.7067L2.3734 23.3733C1.97939 23.7405 1.36539 23.7296 0.984571 23.3488C0.603755 22.968 0.592921 22.354 0.960067 21.96L10.9201 12L0.960067 2.04C0.570128 1.64958 0.570128 1.01709 0.960067 0.626667C1.14658 0.43782 1.40131 0.332079 1.66673 0.333332Z" />
  </symbol>
  <symbol id="phones" viewBox="0 0 48 48" fill="none">
    <path d="M33.375 5.25H14.625C13.3306 5.25 12.2812 6.29933 12.2812 7.59375V40.4062C12.2812 41.7007 13.3306 42.75 14.625 42.75H33.375C34.6694 42.75 35.7188 41.7007 35.7188 40.4062V7.59375C35.7188 6.29933 34.6694 5.25 33.375 5.25Z" stroke-width="2" stroke-linecap="round" stroke-linejoin="round"/>
    <path d="M22 6H26.6875" stroke-width="3" stroke-linecap="round" stroke-linejoin="round"/>
    <path d="M24 37.7188V37.7404" stroke-width="2.5" stroke-linecap="round" stroke-linejoin="round"/>
    <line x1="13" y1="34" x2="35" y2="34" stroke-width="2"/>
  </symbol>
  <symbol id="watches" viewBox="0 0 48 48" fill="none">
    <path d="M30 12H18C14.6863 12 12 14.6863 12 18V30C12 33.3137 14.6863 36 18 36H30C33.3137 36 36 33.3137 36 30V18C36 14.6863 33.3137 12 30 12Z" stroke-width="2" stroke-linecap="round" stroke-linejoin="round"/>
    <path d="M18 36V42H30V36" stroke-width="2" stroke-linecap="round" stroke-linejoin="round"/>
    <path d="M18 12V6H30V12" stroke-width="2" stroke-linecap="round" stroke-linejoin="round"/>
    <line x1="20.7144" y1="18" x2="20.7144" y2="29" stroke-width="2" stroke-linecap="round"/>
    <line x1="24.7144" y1="23" x2="24.7144" y2="29" stroke-width="2" stroke-linecap="round"/>
    <line x1="28.7144" y1="21" x2="28.7144" y2="29" stroke-width="2" stroke-linecap="round"/>
  </symbol>
  <symbol id="camera" viewBox="0 0 48 48" fill="none">
    <path d="M10 14H12C13.0609 14 14.0783 13.5786 14.8284 12.8284C15.5786 12.0783 16 11.0609 16 10C16 9.46957 16.2107 8.96086 16.5858 8.58579C16.9609 8.21071 17.4696 8 18 8H30C30.5304 8 31.0391 8.21071 31.4142 8.58579C31.7893 8.96086 32 9.46957 32 10C32 11.0609 32.4214 12.0783 33.1716 12.8284C33.9217 13.5786 34.9391 14 36 14H38C39.0609 14 40.0783 14.4214 40.8284 15.1716C41.5786 15.9217 42 16.9391 42 18V36C42 37.0609 41.5786 38.0783 40.8284 38.8284C40.0783 39.5786 39.0609 40 38 40H10C8.93913 40 7.92172 39.5786 7.17157 38.8284C6.42143 38.0783 6 37.0609 6 36V18C6 16.9391 6.42143 15.9217 7.17157 15.1716C7.92172 14.4214 8.93913 14 10 14" stroke-width="2" stroke-linecap="round" stroke-linejoin="round"/>
    <path d="M24 32C27.3137 32 30 29.3137 30 26C30 22.6863 27.3137 20 24 20C20.6863 20 18 22.6863 18 26C18 29.3137 20.6863 32 24 32Z" stroke-width="2" stroke-linecap="round" stroke-linejoin="round"/>
  </symbol>
  <symbol id="headphones" viewBox="0 0 48 48" fill="none">
    <path d="M14 26H12C9.79086 26 8 27.7909 8 30V36C8 38.2091 9.79086 40 12 40H14C16.2091 40 18 38.2091 18 36V30C18 27.7909 16.2091 26 14 26Z" stroke-width="2" stroke-linecap="round" stroke-linejoin="round"/>
    <path d="M36 26H34C31.7909 26 30 27.7909 30 30V36C30 38.2091 31.7909 40 34 40H36C38.2091 40 40 38.2091 40 36V30C40 27.7909 38.2091 26 36 26Z" stroke-width="2" stroke-linecap="round" stroke-linejoin="round"/>
    <path d="M8 30V24C8 19.7565 9.68571 15.6869 12.6863 12.6863C15.6869 9.68571 19.7565 8 24 8C28.2435 8 32.3131 9.68571 35.3137 12.6863C38.3143 15.6869 40 19.7565 40 24V30" stroke-width="2" stroke-linecap="round" stroke-linejoin="round"/>
  </symbol>
  <symbol id="computers" viewBox="0 0 48 48" fill="none">
    <path d="M40 8H8C6.89543 8 6 8.89543 6 10V30C6 31.1046 6.89543 32 8 32H40C41.1046 32 42 31.1046 42 30V10C42 8.89543 41.1046 8 40 8Z" stroke-width="2" stroke-linecap="round" stroke-linejoin="round"/>
    <path d="M14 40H34" stroke-width="2" stroke-linecap="round" stroke-linejoin="round"/>
    <path d="M18 32V40" stroke-width="2" stroke-linecap="round" stroke-linejoin="round"/>
    <path d="M30 32V40" stroke-width="2" stroke-linecap="round" stroke-linejoin="round"/>
    <path d="M6.85718 27.4286H41.1429" stroke-width="2" stroke-linecap="round"/>
  </symbol>
  <symbol id="gaming" viewBox="0 0 48 48" fill="none">
    <path d="M40 12H8C5.79086 12 4 13.7909 4 16V32C4 34.2091 5.79086 36 8 36H40C42.2091 36 44 34.2091 44 32V16C44 13.7909 42.2091 12 40 12Z" stroke-width="2" stroke-linecap="round" stroke-linejoin="round"/>
    <path d="M12 24H20M16 20V28" stroke-width="2" stroke-linecap="round" stroke-linejoin="round"/>
    <path d="M30 22V22.0207" stroke-width="3" stroke-linecap="round" stroke-linejoin="round"/>
    <path d="M36 25.9999V26.0206" stroke-width="3" stroke-linecap="round" stroke-linejoin="round"/>
  </symbol>
  <symbol id="twitter" viewBox="0 0 16 16">
    <path fill-rule="evenodd" clip-rule="evenodd" d="M16 2.91193C15.4121 3.17965 14.7791 3.3607 14.1152 3.4416C14.7932 3.02556 15.3135 2.36588 15.5586 1.58004C14.9238 1.96525 14.2222 2.2455 13.4728 2.39573C12.8755 1.74183 12.0218 1.3335 11.0771 1.3335C9.26548 1.3335 7.79574 2.84066 7.79574 4.69933C7.79574 4.9632 7.82391 5.21938 7.88026 5.46592C5.15208 5.32531 2.73381 3.98668 1.11381 1.94792C0.831132 2.44677 0.669596 3.02556 0.669596 3.64191C0.669596 4.80912 1.24905 5.83958 2.12995 6.4434C1.59277 6.42703 1.08563 6.27391 0.642365 6.02352V6.06493C0.642365 7.69632 1.77402 9.0571 3.27663 9.36527C3.00147 9.44424 2.71128 9.48373 2.41169 9.48373C2.20039 9.48373 1.99378 9.46351 1.79374 9.42402C2.21166 10.7607 3.42313 11.7344 4.86001 11.7604C3.7368 12.6637 2.32059 13.202 0.783234 13.202C0.518398 13.202 0.256383 13.1866 0 13.1558C1.45284 14.1092 3.17896 14.6668 5.03187 14.6668C11.0705 14.6668 14.3715 9.53862 14.3715 5.09033C14.3715 4.94394 14.3687 4.79756 14.3631 4.65407C15.0045 4.17929 15.5614 3.58702 16 2.91193Z" />
  </symbol>
  <symbol id="facebook" viewBox="0 0 17 16">
    <path d="M9.18082 3.81794C9.18082 3.98169 9.18082 4.51541 9.18082 5.27366H11.7878L11.5052 7.59763H9.18082C9.18082 11.1816 9.18082 15.9843 9.18082 15.9843H6.09563C6.09563 15.9843 6.09563 11.2452 6.09563 7.59763H4.48804V5.27366H6.09563C6.09563 4.35204 6.09563 3.69669 6.09563 3.51422C6.09563 2.64485 6.03013 2.23235 6.39954 1.55866C6.76913 0.885005 7.81163 -0.00543266 9.61472 0.0160048C11.4183 0.0382236 12.1785 0.211724 12.1785 0.211724L11.7878 2.6885C11.7878 2.6885 10.6362 2.38441 10.0709 2.49279C9.50635 2.60119 9.18082 2.94894 9.18082 3.81794Z" />
  </symbol>
  <symbol id="tiktok" viewBox="0 0 17 16">
    <path d="M12.5504 3.358C11.891 2.59144 11.5456 1.60104 11.5731 0.592723L9.10925 0.533203C9.10925 0.533203 9.10925 0.638323 9.10925 0.780083V10.6602C9.14365 13.786 4.20509 13.7102 4.59581 10.2551C4.83469 8.88136 6.31085 8.03592 7.62253 8.51384V5.99992C4.76685 5.50264 2.06061 7.7756 2.08909 10.6713C2.33869 16.9513 11.3461 16.9521 11.596 10.6713C11.5331 10.4465 11.5683 6.26152 11.5593 5.90856C12.6797 6.60568 13.9832 6.95416 15.3033 6.90952V4.3132C14.0829 4.3132 13.1515 3.98872 12.5504 3.358Z" />
  </symbol>
  <symbol id="instagram" viewBox="0 0 16 16">
    <path d="M7.99992 14.6668C6.57042 14.6668 5.54174 14.6661 4.73972 14.5883C3.94689 14.5115 3.43972 14.3638 3.03497 14.1095C2.57237 13.8188 2.1812 13.4277 1.89052 12.9651C1.63628 12.5604 1.4885 12.0532 1.41174 11.2604C1.33396 10.4583 1.33325 9.42966 1.33325 8.00016C1.33325 6.57067 1.33396 5.54198 1.41174 4.73996C1.4885 3.94713 1.63628 3.43996 1.89052 3.03521C2.18119 2.5726 2.57236 2.18143 3.03497 1.89077C3.43972 1.63653 3.94689 1.48875 4.73972 1.41198C5.54164 1.3342 6.57032 1.3335 7.99992 1.3335C9.42941 1.3335 10.4581 1.3342 11.2601 1.41198C12.0529 1.48875 12.5601 1.63653 12.9649 1.89077C13.4274 2.18144 13.8186 2.57261 14.1092 3.03521C14.3636 3.43996 14.5112 3.94713 14.5881 4.73996C14.6659 5.54198 14.6666 6.57067 14.6666 8.00016C14.6666 9.42966 14.6659 10.4583 14.5881 11.2604C14.5112 12.0532 14.3636 12.5604 14.1092 12.9651C13.8186 13.4277 13.4274 13.8188 12.9649 14.1095C12.5601 14.3638 12.0529 14.5115 11.2601 14.5883C10.4581 14.6661 9.42941 14.6668 7.99992 14.6668Z" stroke-width="2" />
    <path d="M7.99992 11.3333C9.47268 11.3333 10.6666 10.1394 10.6666 8.66667C10.6666 7.19391 9.47268 6 7.99992 6C6.52716 6 5.33325 7.19391 5.33325 8.66667C5.33325 10.1394 6.52716 11.3333 7.99992 11.3333Z" stroke-width="2" />
    <path d="M11.25 5.5C11.6642 5.5 12 5.16421 12 4.75C12 4.33579 11.6642 4 11.25 4C10.8358 4 10.5 4.33579 10.5 4.75C10.5 5.16421 10.8358 5.5 11.25 5.5Z" />
  </symbol>
</svg>